<mxfile host="drawio-plugin" agent="Mozilla/5.0 (Windows NT 10.0; Win64; x64) AppleWebKit/537.36 (KHTML, like Gecko) Chrome/122.0.0.0 Safari/537.36" modified="2024-11-20T11:43:11.917Z" etag="wbRxTrszvTddeKuQj-FB" version="22.1.22" type="embed" pages="2">
  <diagram name="Page-1" id="u7fCBuFuwawOaGfROQs2">
    <mxGraphModel dx="1812" dy="715" grid="1" gridSize="10" guides="1" tooltips="1" connect="1" arrows="1" fold="1" page="1" pageScale="1" pageWidth="827" pageHeight="1169" math="0" shadow="0">
      <root>
        <mxCell id="0" />
        <mxCell id="1" parent="0" />
        <mxCell id="Xy9IVaUKgZ3eL9J5kQbr-5" value="Canvas" style="rounded=1;whiteSpace=wrap;html=1;fontSize=14;" parent="1" vertex="1">
          <mxGeometry x="93.5" y="300" width="120" height="250" as="geometry" />
        </mxCell>
        <mxCell id="Xy9IVaUKgZ3eL9J5kQbr-7" value="Widgets Library" style="rounded=1;whiteSpace=wrap;html=1;fontSize=14;" parent="1" vertex="1">
          <mxGeometry x="-220" y="300" width="120" height="250" as="geometry" />
        </mxCell>
        <mxCell id="Xy9IVaUKgZ3eL9J5kQbr-8" value="Properties Panel" style="rounded=1;whiteSpace=wrap;html=1;fontSize=14;" parent="1" vertex="1">
          <mxGeometry x="410" y="290" width="120" height="250" as="geometry" />
        </mxCell>
        <mxCell id="Xy9IVaUKgZ3eL9J5kQbr-11" value="Drag and Drop Manager" style="text;html=1;align=center;verticalAlign=middle;resizable=0;points=[];autosize=1;strokeColor=none;fillColor=none;fontSize=14;" parent="1" vertex="1">
          <mxGeometry x="-90" y="370" width="170" height="30" as="geometry" />
        </mxCell>
        <mxCell id="Xy9IVaUKgZ3eL9J5kQbr-12" value="" style="endArrow=classic;html=1;rounded=0;" parent="1" edge="1">
          <mxGeometry width="50" height="50" relative="1" as="geometry">
            <mxPoint x="250" y="420" as="sourcePoint" />
            <mxPoint x="380" y="420" as="targetPoint" />
          </mxGeometry>
        </mxCell>
        <mxCell id="Xy9IVaUKgZ3eL9J5kQbr-13" value="Pub Sub" style="text;html=1;align=center;verticalAlign=middle;resizable=0;points=[];autosize=1;strokeColor=none;fillColor=none;fontSize=14;" parent="1" vertex="1">
          <mxGeometry x="275" y="370" width="80" height="30" as="geometry" />
        </mxCell>
        <mxCell id="Xy9IVaUKgZ3eL9J5kQbr-14" value="" style="shape=curlyBracket;whiteSpace=wrap;html=1;rounded=1;flipH=1;labelPosition=right;verticalLabelPosition=middle;align=left;verticalAlign=middle;size=0.5;rotation=-90;" parent="1" vertex="1">
          <mxGeometry x="144" y="210" width="20" height="120" as="geometry" />
        </mxCell>
        <mxCell id="Xy9IVaUKgZ3eL9J5kQbr-15" value="Canvas Manager" style="text;html=1;align=center;verticalAlign=middle;resizable=0;points=[];autosize=1;strokeColor=none;fillColor=none;" parent="1" vertex="1">
          <mxGeometry x="93.5" y="220" width="110" height="30" as="geometry" />
        </mxCell>
        <mxCell id="Xy9IVaUKgZ3eL9J5kQbr-16" value="Schema Manager" style="shape=cylinder3;whiteSpace=wrap;html=1;boundedLbl=1;backgroundOutline=1;size=15;fontSize=14;" parent="1" vertex="1">
          <mxGeometry x="170" y="615" width="90" height="130" as="geometry" />
        </mxCell>
        <mxCell id="Xy9IVaUKgZ3eL9J5kQbr-20" value="(B)" style="text;html=1;align=center;verticalAlign=middle;resizable=0;points=[];autosize=1;strokeColor=none;fillColor=none;fontSize=18;" parent="1" vertex="1">
          <mxGeometry x="-85" y="430" width="50" height="40" as="geometry" />
        </mxCell>
        <mxCell id="Xy9IVaUKgZ3eL9J5kQbr-21" value="(A)" style="text;html=1;align=center;verticalAlign=middle;resizable=0;points=[];autosize=1;strokeColor=none;fillColor=none;fontSize=18;" parent="1" vertex="1">
          <mxGeometry x="-370" y="720" width="50" height="40" as="geometry" />
        </mxCell>
        <mxCell id="Xy9IVaUKgZ3eL9J5kQbr-22" value="(B)" style="text;html=1;align=center;verticalAlign=middle;resizable=0;points=[];autosize=1;strokeColor=none;fillColor=none;fontSize=18;" parent="1" vertex="1">
          <mxGeometry x="-370" y="827" width="50" height="40" as="geometry" />
        </mxCell>
        <mxCell id="Xy9IVaUKgZ3eL9J5kQbr-23" value="Widget Script" style="shape=document;whiteSpace=wrap;html=1;boundedLbl=1;fontSize=14;" parent="1" vertex="1">
          <mxGeometry x="-65" y="580" width="120" height="80" as="geometry" />
        </mxCell>
        <mxCell id="Xy9IVaUKgZ3eL9J5kQbr-24" value="" style="endArrow=classic;html=1;rounded=0;" parent="1" edge="1">
          <mxGeometry width="50" height="50" relative="1" as="geometry">
            <mxPoint x="-10" y="420" as="sourcePoint" />
            <mxPoint x="-10" y="550" as="targetPoint" />
          </mxGeometry>
        </mxCell>
        <mxCell id="Xy9IVaUKgZ3eL9J5kQbr-25" value="" style="endArrow=none;html=1;rounded=0;" parent="1" edge="1">
          <mxGeometry width="50" height="50" relative="1" as="geometry">
            <mxPoint x="-60" y="420" as="sourcePoint" />
            <mxPoint x="-10" y="420" as="targetPoint" />
          </mxGeometry>
        </mxCell>
        <mxCell id="Xy9IVaUKgZ3eL9J5kQbr-28" value="" style="endArrow=none;html=1;rounded=0;" parent="1" edge="1">
          <mxGeometry width="50" height="50" relative="1" as="geometry">
            <mxPoint x="10" y="550" as="sourcePoint" />
            <mxPoint x="10" y="420" as="targetPoint" />
          </mxGeometry>
        </mxCell>
        <mxCell id="Xy9IVaUKgZ3eL9J5kQbr-30" value="" style="endArrow=classic;html=1;rounded=0;" parent="1" edge="1">
          <mxGeometry width="50" height="50" relative="1" as="geometry">
            <mxPoint x="10" y="420" as="sourcePoint" />
            <mxPoint x="60" y="420" as="targetPoint" />
          </mxGeometry>
        </mxCell>
        <mxCell id="Xy9IVaUKgZ3eL9J5kQbr-31" value="" style="endArrow=classic;html=1;rounded=0;" parent="1" edge="1">
          <mxGeometry width="50" height="50" relative="1" as="geometry">
            <mxPoint x="70" y="620" as="sourcePoint" />
            <mxPoint x="150" y="680" as="targetPoint" />
          </mxGeometry>
        </mxCell>
        <mxCell id="Xy9IVaUKgZ3eL9J5kQbr-34" value="widget library" style="shape=document;whiteSpace=wrap;html=1;boundedLbl=1;fontSize=14;" parent="1" vertex="1">
          <mxGeometry x="-440" y="375" width="120" height="80" as="geometry" />
        </mxCell>
        <mxCell id="Xy9IVaUKgZ3eL9J5kQbr-36" value="" style="endArrow=classic;html=1;rounded=0;" parent="1" edge="1">
          <mxGeometry width="50" height="50" relative="1" as="geometry">
            <mxPoint x="-300" y="410" as="sourcePoint" />
            <mxPoint x="-250" y="360" as="targetPoint" />
          </mxGeometry>
        </mxCell>
        <mxCell id="Xy9IVaUKgZ3eL9J5kQbr-37" value="(A)" style="text;html=1;align=center;verticalAlign=middle;resizable=0;points=[];autosize=1;strokeColor=none;fillColor=none;fontSize=18;" parent="1" vertex="1">
          <mxGeometry x="-290" y="430" width="50" height="40" as="geometry" />
        </mxCell>
        <mxCell id="Xy9IVaUKgZ3eL9J5kQbr-38" value="(C)" style="text;html=1;align=center;verticalAlign=middle;resizable=0;points=[];autosize=1;strokeColor=none;fillColor=none;fontSize=18;" parent="1" vertex="1">
          <mxGeometry x="230" y="430" width="50" height="40" as="geometry" />
        </mxCell>
        <mxCell id="Xy9IVaUKgZ3eL9J5kQbr-39" value="On Loading:&lt;br style=&quot;font-size: 16px;&quot;&gt;Load widget definitions from the widget library JSON file.&lt;br style=&quot;font-size: 16px;&quot;&gt;Items are grouped by type and displayed in widget library dialog" style="text;html=1;align=left;verticalAlign=middle;resizable=0;points=[];autosize=1;strokeColor=none;fillColor=none;fontSize=16;" parent="1" vertex="1">
          <mxGeometry x="-360" y="760" width="480" height="70" as="geometry" />
        </mxCell>
        <mxCell id="Xy9IVaUKgZ3eL9J5kQbr-40" value="On Dragging and dropping widget from widget library to canvas&lt;div&gt;1. Widget Script - create DOM element and add it to canvas&lt;/div&gt;&lt;div&gt;2. Widget Script - create schema side effect&amp;nbsp;&lt;/div&gt;" style="text;html=1;align=left;verticalAlign=middle;resizable=0;points=[];autosize=1;strokeColor=none;fillColor=none;fontSize=16;" parent="1" vertex="1">
          <mxGeometry x="-360" y="867" width="470" height="70" as="geometry" />
        </mxCell>
        <mxCell id="Xy9IVaUKgZ3eL9J5kQbr-41" value="" style="endArrow=classic;startArrow=classic;html=1;rounded=0;textShadow=0;dashed=1;dashPattern=12 12;" parent="1" edge="1">
          <mxGeometry width="50" height="50" relative="1" as="geometry">
            <mxPoint x="-390" y="480" as="sourcePoint" />
            <mxPoint x="-90" y="620" as="targetPoint" />
            <Array as="points">
              <mxPoint x="-390" y="620" />
            </Array>
          </mxGeometry>
        </mxCell>
        <mxCell id="Xy9IVaUKgZ3eL9J5kQbr-43" value="Each widget definition in JSON should refer to a widget script" style="text;html=1;align=center;verticalAlign=middle;resizable=0;points=[];autosize=1;strokeColor=none;fillColor=none;fontSize=14;" parent="1" vertex="1">
          <mxGeometry x="-490" y="630" width="400" height="30" as="geometry" />
        </mxCell>
        <mxCell id="Xy9IVaUKgZ3eL9J5kQbr-44" value="" style="shape=document;whiteSpace=wrap;html=1;boundedLbl=1;" parent="1" vertex="1">
          <mxGeometry x="301.5" y="705" width="120" height="80" as="geometry" />
        </mxCell>
        <mxCell id="Xy9IVaUKgZ3eL9J5kQbr-45" value="" style="shape=document;whiteSpace=wrap;html=1;boundedLbl=1;" parent="1" vertex="1">
          <mxGeometry x="311.5" y="715" width="120" height="80" as="geometry" />
        </mxCell>
        <mxCell id="Xy9IVaUKgZ3eL9J5kQbr-46" value="Schema Providers" style="shape=document;whiteSpace=wrap;html=1;boundedLbl=1;" parent="1" vertex="1">
          <mxGeometry x="321.5" y="725" width="120" height="80" as="geometry" />
        </mxCell>
        <mxCell id="Xy9IVaUKgZ3eL9J5kQbr-47" value="" style="endArrow=classic;html=1;rounded=0;dashed=1;dashPattern=12 12;" parent="1" edge="1">
          <mxGeometry width="50" height="50" relative="1" as="geometry">
            <mxPoint x="271.5" y="665" as="sourcePoint" />
            <mxPoint x="301.5" y="695" as="targetPoint" />
          </mxGeometry>
        </mxCell>
        <mxCell id="Xy9IVaUKgZ3eL9J5kQbr-48" value="Each widget script on block editor should have schema provider" style="text;html=1;align=center;verticalAlign=middle;resizable=0;points=[];autosize=1;strokeColor=none;fillColor=none;fontSize=14;" parent="1" vertex="1">
          <mxGeometry x="80" y="580" width="420" height="30" as="geometry" />
        </mxCell>
        <mxCell id="Xy9IVaUKgZ3eL9J5kQbr-49" value="Pub Sub" style="text;html=1;align=center;verticalAlign=middle;resizable=0;points=[];autosize=1;strokeColor=none;fillColor=none;fontSize=14;" parent="1" vertex="1">
          <mxGeometry x="84" y="610" width="80" height="30" as="geometry" />
        </mxCell>
        <mxCell id="Xy9IVaUKgZ3eL9J5kQbr-50" value="(C)" style="text;html=1;align=center;verticalAlign=middle;resizable=0;points=[];autosize=1;strokeColor=none;fillColor=none;fontSize=18;" parent="1" vertex="1">
          <mxGeometry x="-370" y="940" width="50" height="40" as="geometry" />
        </mxCell>
        <mxCell id="Xy9IVaUKgZ3eL9J5kQbr-51" value="On selecting a widget update the properties panel using pubsub" style="text;html=1;align=left;verticalAlign=middle;resizable=0;points=[];autosize=1;strokeColor=none;fillColor=none;fontSize=16;" parent="1" vertex="1">
          <mxGeometry x="-360" y="980" width="480" height="30" as="geometry" />
        </mxCell>
      </root>
    </mxGraphModel>
  </diagram>
  <diagram id="ryu5bb1vuOoyrX2os-yA" name="Page-2">
    <mxGraphModel dx="1332" dy="715" grid="1" gridSize="10" guides="1" tooltips="1" connect="1" arrows="1" fold="1" page="1" pageScale="1" pageWidth="850" pageHeight="1100" math="0" shadow="0">
      <root>
        <mxCell id="0" />
        <mxCell id="1" parent="0" />
      </root>
    </mxGraphModel>
  </diagram>
</mxfile>
